<?xml version="1.0" encoding="utf-8"?>
<!-- Generator: Adobe Illustrator 21.1.0, SVG Export Plug-In . SVG Version: 6.00 Build 0)  -->
<svg version="1.1" id="Layer_1" xmlns="http://www.w3.org/2000/svg" xmlns:xlink="http://www.w3.org/1999/xlink" x="0px" y="0px"
	 viewBox="0 0 240 90" enable-background="new 0 0 240 90" xml:space="preserve">
<g>
	<path fill="#00B7FF" d="M125.2,53.7c-1.4-0.5-1.3-2-0.2-2.5c3.7-1.3,6-4.5,6-8.1c0-1.7-0.9-3.9-1.8-5.1l2.1-1.9v-1.7h-10.7l0,0
		c-5.3,0.3-9.5,4-9.5,8.7c0,3.6,2.1,7,6.6,8.1c-1.1,0.8-1.1,1.6-0.4,2.5c-3.9,1.4-6.8,4.4-6.8,8.2c0,5.1,4.7,9.2,10.6,9.2
		c5.9,0,10.6-4.1,10.6-9.2C131.7,58.3,129,55.1,125.2,53.7 M121.2,66.5c-2.8,0-5.1-1.9-5.1-4.4c0-2.3,1.9-4.1,4.5-4.3V47.2
		c-2.2-0.3-3.9-1.9-3.9-3.9c0-2.2,2-3.9,4.6-3.9c2.5,0,4.6,1.8,4.6,3.9c0,2-1.7,3.6-3.9,3.9v10.7c2.5,0.3,4.5,2.1,4.5,4.3
		C126.2,64.6,124,66.5,121.2,66.5"/>
	<path fill="#00B7FF" d="M53.8,43.1c-0.8-0.7-1.9-1.1-3.4-1.5c-1.1-0.3-1.7-0.4-1.8-0.5c-0.7-0.3-1.1-0.7-1.1-1.1s0.2-0.7,0.5-1
		c0.4-0.3,0.9-0.4,1.4-0.4c1.1,0,2.3,0.4,3.5,1l2.2-4.5c-1.9-0.9-3.9-1.2-5.9-1.2c-2.6,0-4.6,0.7-6,2c-1.3,1.3-2,3-2,5.1
		c0,1.8,0.6,3.2,1.8,4.1c0.8,0.5,1.9,1,3.4,1.3c1.1,0.3,1.8,0.5,2.2,0.7c0.4,0.3,0.5,0.6,0.5,1.1S49,49,48.6,49.3
		c-0.4,0.3-0.9,0.4-1.4,0.4c-1.6,0-3.2-0.7-5.1-2l-2.4,4.9c2.4,1.5,4.8,2.3,7.3,2.3c2.5,0,4.5-0.6,6-1.8c1.8-1.3,2.6-3.2,2.6-5.6
		C55.6,45.6,55,44.2,53.8,43.1"/>
	<path fill="#00B7FF" d="M69.9,49.5C69.4,49.8,68.8,50,68,50c-2.5,0-3.9-1.5-3.9-4.4h13.5c0-2.2-0.3-4-0.7-5.4
		c-0.4-1.4-1.2-2.6-2.4-3.8c-1.7-1.7-3.9-2.5-6.8-2.5c-4.2,0-7.1,1.6-8.7,4.7c-0.9,1.8-1.4,3.7-1.4,5.8c0,2.6,0.7,4.9,2.1,6.7
		c1.9,2.5,4.6,3.7,8.2,3.7c1.6,0,3.1-0.3,4.5-0.9c1.3-0.5,2.4-1.3,3.2-2.5c0.7-0.9,1.2-2,1.7-3.5h-6.1
		C70.7,48.8,70.3,49.3,69.9,49.5 M65.5,39.2c0.6-0.5,1.4-0.8,2.4-0.8c1,0,1.8,0.3,2.4,0.9c0.7,0.5,1.1,1.3,1.3,2.3h-7.4
		C64.4,40.6,64.9,39.8,65.5,39.2"/>
	<polygon fill="#00B7FF" points="90.1,26.2 91.6,27.1 91.6,54.2 98,54.2 98,24.9 90.1,24.9 	"/>
	<polygon fill="#00B7FF" points="79.3,24.9 79.3,26.2 80.8,27.1 80.8,54.2 87.2,54.2 87.2,24.9 87.2,24.9 	"/>
	<path fill="#00B7FF" d="M105.5,25.1c-1,0-1.8,0.4-2.5,1.1c-0.7,0.7-1.1,1.5-1.1,2.5c0,1.1,0.4,1.8,1.1,2.6c0.7,0.7,1.6,1.1,2.5,1.1
		c1,0,1.8-0.4,2.5-1.1s1.1-1.6,1.1-2.5s-0.4-1.8-1.1-2.5C107.3,25.5,106.4,25.1,105.5,25.1"/>
	<path fill="#00B7FF" d="M145.6,49.5c-0.4,0.3-1.1,0.4-1.8,0.4c-2.5,0-3.9-1.5-3.9-4.4h13.5c0-2.2-0.3-4-0.7-5.4
		c-0.4-1.4-1.2-2.6-2.4-3.8c-1.7-1.7-3.9-2.5-6.8-2.5c-4.2,0-7.1,1.6-8.8,4.7c-0.9,1.8-1.4,3.7-1.4,5.8c0,2.6,0.7,4.9,2.1,6.7
		c1.9,2.5,4.6,3.7,8.2,3.7c1.6,0,3.1-0.3,4.5-0.9c1.3-0.5,2.4-1.3,3.2-2.5c0.7-0.9,1.2-2,1.6-3.5h-6.1
		C146.4,48.8,146,49.3,145.6,49.5 M141.2,39.2c0.6-0.5,1.4-0.8,2.5-0.8c1,0,1.8,0.3,2.4,0.9c0.6,0.5,1.1,1.3,1.3,2.3H140
		C140.1,40.6,140.5,39.8,141.2,39.2"/>
	<polygon fill="#00B7FF" points="100.8,36 102.3,36.9 102.3,54.1 108.7,54.1 108.7,34.6 100.8,34.6 	"/>
	<path fill="#00B7FF" d="M173.8,36.2c-1.3-1.4-3-2.2-5.3-2.2c-1.5,0-2.7,0.4-3.8,1c-0.6,0.4-1.3,1.1-2,1.9v-2.5h-7.9v1.4l1.5,1v17.2
		h6.4V43.6c0-1.2,0.3-2.1,0.7-2.7c0.7-0.9,1.6-1.3,2.6-1.3c0.5,0,1.1,0.2,1.6,0.4c0.4,0.3,0.8,0.6,1.1,1.1c0.3,0.5,0.4,1.6,0.4,3.1
		v9.9h6.4V41.6c0-1.3-0.1-2.4-0.4-3.2C174.9,37.6,174.4,36.9,173.8,36.2"/>
	<path fill="#00B7FF" d="M187.4,50.3c-2-0.1-2.6-1.8-2.7-3v-7.8l0,0v-1.3h4.4v-5.4h-4.4v-5.4h-6.4v5.4v3.3v5.3V48
		c0.5,5.3,4.6,6.8,8.1,6.6c1.3-0.1,1.9-0.3,3.2-0.6l0.1-3.9C188.8,50.3,188.5,50.3,187.4,50.3"/>
</g>
</svg>
